<?xml version="1.0" standalone="no"?><!DOCTYPE svg PUBLIC "-//W3C//DTD SVG 1.1//EN" "http://www.w3.org/Graphics/SVG/1.1/DTD/svg11.dtd"><svg t="1625644332977" class="icon" viewBox="0 0 1024 1024" version="1.1" xmlns="http://www.w3.org/2000/svg" p-id="3063" width="32" height="32" xmlns:xlink="http://www.w3.org/1999/xlink"><defs><style type="text/css"></style></defs><path d="M633.207467 457.3184c-39.936 3.754667-80.520533 6.280533-121.992534 6.280533-41.642667 0-82.158933-2.525867-121.9584-6.280533a1246.0032 1246.0032 0 0 0 0 109.124267c80.1792-7.4752 163.771733-7.5776 243.950934-0.2048a1240.8832 1240.8832 0 0 0 0-108.885334z m-239.581867 170.632533c19.592533 205.346133 87.2448 315.153067 117.725867 315.153067 30.446933 0 98.0992-109.909333 117.691733-315.2896a1274.811733 1274.811733 0 0 0-235.4176 0.136533z m-65.536-54.8864a1244.433067 1244.433067 0 0 1-1.536-61.269333c0-20.821333 0.648533-41.2672 1.536-61.405867-1.536-0.2048-3.208533-0.341333-4.642133-0.546133-106.359467-15.940267-205.824-73.045333-268.4928-123.630933a491.178667 491.178667 0 0 0 0.546133 372.462933c62.0544-50.722133 160.256-109.021867 268.0832-125.201067 1.297067-0.1024 2.9696-0.2048 4.5056-0.4096z m300.8512-177.220266c-19.592533-205.380267-87.2448-315.153067-117.725867-315.153067-30.446933 0-98.0992 109.7728-117.691733 315.050667 77.0048 7.236267 157.764267 7.3728 235.4176 0.1024z m79.735467 52.701866c-4.608 0.750933-9.557333 0.989867-14.301867 1.6384 1.024 20.241067 1.672533 40.686933 1.672533 61.713067a1402.88 1402.88 0 0 1-1.570133 61.474133c4.642133 0.682667 9.693867 0.887467 14.199467 1.672534 102.4 16.384 198.109867 72.157867 259.1744 121.856a490.769067 490.769067 0 0 0-0.136534-370.141867c-60.928 49.732267-156.637867 105.3696-259.037866 121.787733z" p-id="3064" fill="#1296db"></path><path d="M689.9712 388.676267c2.9696-0.4096 6.144-0.546133 9.045333-1.092267 107.008-17.066667 193.706667-77.448533 240.878934-118.340267C855.210667 119.944533 695.159467 19.080533 511.214933 19.080533c86.152533 0 158.3104 157.184 178.756267 369.595734zM332.4928 634.538667c-110.8992 16.725333-200.021333 79.633067-248.832 121.5488 84.923733 148.3776 244.394667 248.593067 427.690667 248.593066-86.254933 0-158.378667-157.525333-178.858667-370.141866z" p-id="3065" fill="#1296db"></path><path d="M699.016533 635.869867c-2.8672-0.443733-6.075733-0.682667-9.045333-1.092267-20.548267 212.514133-92.603733 369.800533-178.756267 369.800533 183.7056 0 343.552-100.6592 428.373334-249.582933-46.421333-40.618667-131.584-101.751467-240.571734-119.125333zM332.458667 389.0176C352.938667 176.366933 425.096533 19.114667 511.214933 19.114667 327.68 19.114667 167.8336 119.739733 83.012267 268.663467c49.0496 41.608533 139.4688 103.867733 249.480533 120.354133z" p-id="3066" fill="#1296db"></path></svg>