<svg id="图层_1" data-name="图层 1" xmlns="http://www.w3.org/2000/svg" viewBox="0 0 500 500">
  <defs>
    <style>
      .cls-1 {
        fill: var(--primary-color, #3275bc);
      }
    </style>
  </defs>
  <g transform="translate(-250, -220)">
    <path class="cls-1" d="M516.13,678.2l-11.12.17-.09-6.24,30.14-.45.09,6.24-11.58.17.43,28.73-7.44.11Z"/>
    <path class="cls-1" d="M571,679.76l1.17,6.13-20.49,3.93L554.42,704l-7.26,1.39-3.44-17.91c-1-5.16-1.12-8.63-.51-10.42a10.4,10.4,0,0,1,4.15-5.82,24.7,24.7,0,0,1,9.06-3.23l11.9-2.28,1.17,6.12-11,2.11c-3.39.72-5.51,1.41-6.38,2.08q-2.65,1.74-2,5.82l.35,1.86Z"/>
    <path class="cls-1" d="M575.22,663.4l6.91-2.62,7,18.38q1.47,3.42,2,4.5a4,4,0,0,0,3.32,2.24q2.12.12,6.68-1.6l6.66-2.53L610,687.6l-7.4,2.81a37.13,37.13,0,0,1-7.82,2.29,10,10,0,0,1-9.47-4.26,32.73,32.73,0,0,1-3.14-6.66Z"/>
    <path class="cls-1" d="M649.92,619.38l22.24,27-5.7,4.7-9.21-11.16-10.43,8.6,9.2,11.17-5.75,4.73-22.24-27,5.75-4.74,9.07,11,10.44-8.6-9.07-11Z"/>
    <path class="cls-1" d="M665.86,601a22.46,22.46,0,0,1,7.19-6,12.33,12.33,0,0,1,9.71-.56,26.39,26.39,0,0,1,8.09,4.67,22.28,22.28,0,0,1,6.08,7.23,12.77,12.77,0,0,1,.73,9.5,21.28,21.28,0,0,1-4,7.05,22.36,22.36,0,0,1-8.18,6.59,12.22,12.22,0,0,1-8,.73,21.47,21.47,0,0,1-8.64-4.51q-7.77-6.3-7.93-12.85Q660.81,607.32,665.86,601Zm4.59,3.66q-3.24,4-2,7.81.92,3,5.43,6.7,4.77,3.87,8.39,4t6.59-3.63q2.91-3.59,2-7.09t-5.55-7.3q-4.27-3.48-7.64-3.9Q673.76,600.66,670.45,604.67Z"/>
    <path class="cls-1" d="M685.48,572.53l28.37,4.13-20.54-20.2,4.75-9.76L729.5,562l-3.1,6.36-23.57-11.48,19.58,19.68-3.36,6.88-27.35-3.7,23.57,11.48-3.1,6.36-31.44-15.31Z"/>
    <path class="cls-1" d="M706.5,512.6l6.06,1.46-2.28,9.43a20.74,20.74,0,0,0-.78,5.47,5.58,5.58,0,0,0,1.31,3.29,6.63,6.63,0,0,0,1.78,1.54,22.53,22.53,0,0,0,3.35,1.32L720.56,516l6.07,1.46L722,536.57c3,.44,5.22.06,6.71-1.12s2.66-3.53,3.51-7l2.19-9.07,6.07,1.46-2.28,9.43a44.46,44.46,0,0,1-2.09,6.62,11.9,11.9,0,0,1-5.79,6.31q-5.61,2.75-13.62.81-8.87-2.15-12.49-8.79a11.18,11.18,0,0,1-1.38-4.57,20.33,20.33,0,0,1,.71-5.84Z"/>
    <path class="cls-1" d="M742.59,506.69l-6.23-.3.78-16c.13-2.55,0-4.26-.48-5.12a3.61,3.61,0,0,0-3.21-2,3.9,3.9,0,0,0-3.82,2,8.19,8.19,0,0,0-.88,3.84l-.31,6.5c-.19,3.94-1.05,6.75-2.56,8.43a9.44,9.44,0,0,1-3.53,2.37,10.52,10.52,0,0,1-4.45.7,11.4,11.4,0,0,1-6.6-2.47c-1.88-1.49-2.92-3.79-3.12-6.87-.06-1.06,0-2.61.07-4.67l.84-17.33,6.24.3-.77,15.66a27.28,27.28,0,0,0,.09,4.67c.3,1.59,1.45,2.44,3.44,2.53a3.27,3.27,0,0,0,3.45-1.82,11.1,11.1,0,0,0,.84-4.37l.28-5.6a21,21,0,0,1,1-6.36,8.17,8.17,0,0,1,4.65-4.91,13.25,13.25,0,0,1,5.45-.84,11.2,11.2,0,0,1,5.64,1.74,8.48,8.48,0,0,1,4,6.34,41.61,41.61,0,0,1,0,6Z"/>
    <path class="cls-1" d="M293.53,423.93H410.66s5.25-.15,8,1.32C425,428.66,428,437.7,426.72,454c0,0,1.71-12.69,14.09-31.13,18-26.8,53.43-65.63,96.33-94.37H409.35s-65.86-3.93-97.64,53.09C311.71,381.56,295.51,413.42,293.53,423.93Z"/>
    <path class="cls-1" d="M398,527s4.59,2.19,2.84,23.37,3.94,72.75,26,100.05c2.86-1.28-31.61,18-69.9,18.57,0,0,15.31-44.55,26.65-84.32C391.32,557.55,395.69,531.92,398,527Z"/>
    <path class="cls-1" d="M434.26,645S391,463.47,552.22,375c0,0,81.91-40.63,164.48-43.9,0,0-25.55,85.84-91.74,91.09H549.59L509,550S485.35,624,434.26,645Z"/>
    <path class="cls-1" d="M738.56,434.65A235.66,235.66,0,0,0,717,364.3a180.93,180.93,0,0,1-16.82,26.75,209.17,209.17,0,0,1,12.48,47.29q.45,3.07.79,6.18l26.05-2.92Q739.06,438.1,738.56,434.65Z"/>
    <path class="cls-1" d="M357.69,624.84c-42.43-39.34-68.86-95.45-68.86-156.29,0-117.42,95.53-212.95,213-212.95,61.48,0,117.91,26.76,157.22,69.71,9.79-2,19.87-3.74,30.12-5-44.25-55.57-112.46-90.91-187.34-90.91-131.88,0-239.17,107.3-239.17,239.17a238.48,238.48,0,0,0,86.13,183.73C351.1,645.2,354.25,635.62,357.69,624.84Z"/>
    <path class="cls-1" d="M410,672a192.81,192.81,0,0,1-22.84,6.5A238.14,238.14,0,0,0,465.54,705l3.94-25.91a208.81,208.81,0,0,1-45.68-12.39C420.18,668.25,415.72,670,410,672Z"/>
  </g>
</svg>